<svg xmlns="http://www.w3.org/2000/svg" viewBox="0 0 400 256" fill="none" stroke="#fff" stroke-width="3.5" stroke-linecap="round" stroke-linejoin="round">
  <g opacity=".95">
    <rect x="120" y="128" width="40" height="34" rx="4"/><rect x="166" y="128" width="40" height="34" rx="4"/><rect x="212" y="128" width="40" height="34" rx="4"/>
    <rect x="143" y="88" width="40" height="34" rx="4"/><rect x="189" y="88" width="40" height="34" rx="4"/>
    <rect x="166" y="48" width="40" height="34" rx="4"/>
  </g>
  <g opacity=".75"><path d="M20 196c22-16 44-16 66 0s44 16 66 0 44-16 66 0 44 16 66 0 44-16 66 0"/><path d="M20 224c22-16 44-16 66 0s44 16 66 0 44-16 66 0 44 16 66 0 44-16 66 0"/></g>
  <g opacity=".6"><path d="M300 40l20 20-20 20-20-20z"/></g>
</svg>
