<svg xmlns="http://www.w3.org/2000/svg" viewBox="0 0 400 256" fill="none" stroke="#fff" stroke-width="3.5" stroke-linecap="round" stroke-linejoin="round">
  <g opacity=".85">
    <path d="M60 60 140 40M60 60 140 96M60 60 140 152M60 128 140 40M60 128 140 96M60 128 140 152M60 196 140 96M60 196 140 152M140 40 226 68M140 96 226 68M140 96 226 130M140 152 226 130M140 152 226 190M140 40 226 130"/>
    <circle cx="60" cy="60" r="7"/><circle cx="60" cy="128" r="7"/><circle cx="60" cy="196" r="7"/>
    <circle cx="140" cy="40" r="7"/><circle cx="140" cy="96" r="7"/><circle cx="140" cy="152" r="7"/>
    <circle cx="226" cy="68" r="7"/><circle cx="226" cy="130" r="7"/><circle cx="226" cy="190" r="7"/>
  </g>
  <g opacity="1" stroke-width="3">
    <path d="M266 48h34v34h30v40h28v34h32v42"/>
  </g>
  <g opacity=".6" stroke-dasharray="5 7"><path d="M266 92h124M266 150h124"/></g>
</svg>
